<?xml version="1.0" encoding="utf-8"?>
<!-- Generator: Adobe Illustrator 23.0.2, SVG Export Plug-In . SVG Version: 6.00 Build 0)  -->
<svg version="1.1" id="Layer_1" xmlns="http://www.w3.org/2000/svg" xmlns:xlink="http://www.w3.org/1999/xlink" x="0px" y="0px"
	 viewBox="0 0 1024 768" style="enable-background:new 0 0 1024 768;" xml:space="preserve">
<style type="text/css">
	.st0{fill-rule:evenodd;clip-rule:evenodd;}
</style>
<g>
	<path class="st0" d="M607.2,232.9c-15.1,0-26.9,3.2-38.7,9.7c0-34.4,0-65.6,1.1-76.4l-72.1,12.9v6.5l7.5,1.1
		c9.7,2.1,12.9,7.5,15.1,20.4c2.2,25.8,1.1,163.5,0,186.1c19.4,4.3,39.8,7.5,60.3,7.5c57,0,91.4-35.5,91.4-91.4
		C671.7,265.2,643.7,232.9,607.2,232.9 M582.4,388.9c-4.3,0-9.7,0-12.9-1.1c-1.1-15.1-2.1-78.5-1.1-134.5c6.5-2.2,10.8-3.2,16.1-3.2
		c23.7,0,36.6,28,36.6,62.4C621.1,355.6,605,388.9,582.4,388.9"/>
</g>
<g>
	<path class="st0" d="M226.3,170.6H37v9.7l10.8,1.1c14,2.1,19.4,10.8,21.5,31.2c3.2,38.7,2.2,108.7,0,142
		c-2.1,20.4-7.5,30.1-21.5,31.2L37,387.9v8.6h121.6v-8.6l-12.9-2.2c-14-1.1-19.4-10.8-21.5-31.2c-1.1-14-2.2-36.6-2.2-64.5l25.8,1.1
		c16.1,0,23.7,12.9,26.9,31.2h9.7v-76.4h-9.7c-3.2,18.3-10.8,31.2-26.9,31.2l-25.8,1.1c0-36.6,1.1-71,2.2-91.4h37.6
		c29.1,0,44.1,18.3,54.9,50.6l10.8-3.2L226.3,170.6z"/>
</g>
<g>
	<path class="st0" d="M287.7,230.8c53.8,0,80.7,36.6,80.7,85c0,46.3-30.1,85-83.9,85c-53.8,0-80.7-36.6-80.7-85
		C203.7,269.5,233.9,230.8,287.7,230.8 M284.4,241.6c-23.7,0-30.1,32.3-30.1,74.2c0,40.9,10.8,74.2,32.3,74.2
		c24.7,0,31.2-32.3,31.2-74.2C317.8,274.9,307,241.6,284.4,241.6"/>
</g>
<g>
	<path class="st0" d="M685.7,316.9c0-44.1,28-86.1,82.8-86.1c45.2,0,66.7,33.4,66.7,77.5H735.2c-1.1,39.8,18.3,68.8,57,68.8
		c17.2,0,25.8-4.3,36.6-11.8l4.3,5.4c-10.8,15.1-34.4,30.1-64.5,30.1C720.1,400.8,685.7,366.4,685.7,316.9 M735.2,296.4l50.6-1.1
		c0-21.5-3.2-53.8-21.5-53.8C745.9,241.6,736.3,271.7,735.2,296.4"/>
</g>
<g>
	<path class="st0" d="M963.2,239.4c-12.9-5.4-30.1-8.6-49.5-8.6c-39.8,0-64.5,23.7-64.5,51.6c0,28,18.3,39.8,44.1,48.4
		c26.9,9.7,34.4,17.2,34.4,30.1c0,12.9-9.7,24.7-26.9,24.7c-20.4,0-35.5-11.8-47.3-44.1l-7.5,2.2l1.1,47.3c12.9,5.4,36.6,9.7,57,9.7
		c42,0,68.9-21.5,68.9-54.9c0-22.6-11.8-35.5-39.8-46.3c-30.1-11.8-40.9-19.4-40.9-33.3c0-14,9.7-23.7,22.6-23.7
		c19.4,0,32.3,11.8,42,40.9l7.5-2.1L963.2,239.4z"/>
</g>
<g>
	<path class="st0" d="M508.2,235.1c-18.3-10.8-50.6-5.4-67.8,33.3l1.1-37.7l-72.1,14v6.5l7.5,1.1c9.7,1.1,14,6.5,15.1,20.4
		c2.2,25.8,1.1,71,0,93.6c-1.1,12.9-5.4,19.4-15.1,20.4l-7.5,1.1v8.6h100v-8.6l-12.9-1.1c-10.8-1.1-14-7.5-15.1-20.4
		c-2.1-20.4-2.1-61.3-1.1-87.1c5.4-7.5,29-14,50.6,0L508.2,235.1z"/>
</g>
<g>
	<polygon points="737.1,178.4 746.8,178.4 757.4,206.7 768,178.4 777.6,178.4 777.6,213.7 771.8,213.7 771.8,184.4 770.9,184.4 
		760.4,212.4 754.3,212.4 743.7,184.4 742.8,184.4 742.8,213.7 737.1,213.7 	"/>
</g>
<g>
	<path d="M794.1,178.4h25.3v4.7h-19.6v10.6h16.1v4.6h-16.1V209h19.6v4.7h-25.3V178.4z M813.2,165l2,4.5l-13.9,4.3l-1.8-4L813.2,165z
		"/>
</g>
<g>
	<polygon points="846.8,192.4 856,178.4 862.5,178.4 850.7,196.2 862.5,213.7 856,213.7 846.8,199.9 837.4,213.7 831,213.7 
		843,196.2 831,178.4 837.4,178.4 	"/>
</g>
<g>
	<rect x="875.2" y="178.4" width="5.7" height="35.3"/>
</g>
<g>
	<path d="M921.7,213.1c0,0-6.8,1.2-11.4,1.2c-12.4,0-15.2-6.3-15.2-18.2c0-12.4,3.3-18.3,15.2-18.3c5.3,0,11.4,1.3,11.4,1.3
		l-0.2,4.4c0,0-6.7-0.9-10.6-0.9c-8.2,0-9.9,3.9-9.9,13.4c0,9.3,1.5,13.3,10,13.3c3.5,0,10.4-0.9,10.4-0.9L921.7,213.1z"/>
</g>
<g>
	<path d="M933.4,196.3c0-11.7,3.7-18.4,16.4-18.4c12.7,0,16.4,6.7,16.4,18.4c0,12-3.7,18-16.4,18
		C937.1,214.3,933.4,208.1,933.4,196.3 M960.2,196.3c0-8.8-2-13.6-10.4-13.6c-8.5,0-10.4,4.8-10.4,13.6c0,8.9,1.9,13.2,10.4,13.2
		C958.4,209.5,960.2,205.3,960.2,196.3"/>
</g>
<g>
	<rect x="37" y="447" width="935.9" height="2"/>
</g>
<g>
	<path d="M209.6,522h42.4v4.1h-38v23.4h34.2v4.1H214v24h38.4v4.1h-42.9V522z"/>
	<path d="M314.2,522h4.9l23.4,54.9l23.4-54.9h4.7l-26.3,60.1h-3.9L314.2,522z"/>
	<path d="M435.9,522h42.4v4.1h-38v23.4h34.2v4.1h-34.2v24h38.4v4.1h-42.9V522z"/>
	<path d="M545.6,522h4.2l41.2,51.9V522h4.3v59.7h-3.3l-42-53v53h-4.3V522z"/>
	<path d="M682.2,526.1h-20.8V522h46v4.1h-20.8v55.6h-4.4V526.1z"/>
	<path d="M768.4,573l2.9-3.3c6.6,6.1,12.6,8.9,21.4,8.9c8.9,0,15.1-5,15.1-11.8v-0.2c0-6.3-3.3-10-16.9-12.7
		c-14.3-2.9-20.1-7.8-20.1-16.8v-0.2c0-8.9,8.1-15.7,19.2-15.7c8.7,0,14.4,2.4,20.5,7.2l-2.8,3.5c-5.6-4.9-11.3-6.7-17.8-6.7
		c-8.8,0-14.6,5-14.6,11.3v0.2c0,6.3,3.2,10.1,17.4,13c13.8,2.8,19.6,7.8,19.6,16.5v0.2c0,9.6-8.3,16.3-19.8,16.3
		C782.8,582.5,775.5,579.4,768.4,573z"/>
</g>
</svg>
